<mxfile host="app.diagrams.net" modified="2023-07-06T07:39:30.012Z" agent="Mozilla/5.0 (Windows NT 10.0; Win64; x64) AppleWebKit/537.36 (KHTML, like Gecko) Chrome/114.0.0.0 Safari/537.36" version="21.5.0" etag="EffoYmYIWNQxhjmnIBvt" type="github">
  <diagram name="第 1 页" id="T9m95Wa3KLgoku_LiV1N">
    <mxGraphModel>
      <root>
        <mxCell id="0" />
        <mxCell id="1" parent="0" />
      </root>
    </mxGraphModel>
  </diagram>
</mxfile>
